<?xml version="1.0" encoding="utf-8"?>
<!-- Generator: Adobe Illustrator 24.0.1, SVG Export Plug-In . SVG Version: 6.00 Build 0)  -->
<svg version="1.1" id="Layer_1" xmlns="http://www.w3.org/2000/svg" xmlns:xlink="http://www.w3.org/1999/xlink" x="0px" y="0px"
	 viewBox="0 0 368 235" style="enable-background:new 0 0 368 235;" xml:space="preserve">
<style type="text/css">
	.st0{fill:#FE9801;}
	.st1{fill:#05A8F1;}
	.st2{fill:#E81E63;}
	.st3{fill:#9B27AF;}
	.st4{fill:#333333;}
	.st5{fill:#4CAE4F;}
	.st6{fill:#607C8A;}
	.st7{fill:#3F51B4;}
	.st8{fill:#785548;}
	.st9{fill:#009588;}
	.st10{fill:#FCEA3B;}
	.st11{fill:#89C14B;}
	.st12{fill:#673AB5;}
	.st13{fill:#9E9D9E;}
	.st14{fill:#F34335;}
	.st15{fill:#ED832A;}
</style>
<g>
	<path class="st0" d="M-0.4,197.5c0-26.6,0-53.2,0-79.8c13.9,0,27.9,0.1,41.8,0.1c0,13.3,0,26.5,0,39.8c-0.1,13.1-0.2,26.3-0.3,39.4
		l0.1,0.1C27.3,197.2,13.4,197.4-0.4,197.5z"/>
	<path class="st1" d="M246.5-0.8c14,0,28,0,42,0c0,13.3,0,26.6,0,39.9c-13.8,0-27.7,0-41.5,0C246.8,25.8,246.6,12.5,246.5-0.8z"/>
	<path class="st0" d="M-0.4,79c0-13.3,0-26.6,0-39.9c13.8,0.1,27.7,0.2,41.5,0.3c0,0,0.3-0.3,0.3-0.3C41.3,52.4,41.1,65.7,41,79
		C27.2,79,13.4,79-0.4,79z"/>
	<path class="st2" d="M41.1,39.4c-13.8-0.1-27.7-0.2-41.5-0.3c0-13.3,0-26.6,0-39.9c14,0,28,0,42,0C41.4,12.6,41.3,26,41.1,39.4z"/>
	<path class="st3" d="M123-0.8c14,0,28,0,42,0c-0.1,13.3-0.1,26.6-0.2,40c-13.6-0.1-27.1-0.2-40.7-0.2c-0.2-0.8-0.4-1.5-0.6-2.3
		C123.3,24.1,123.2,11.6,123-0.8z"/>
	<path class="st4" d="M164.8,39.1c0.1-13.3,0.1-26.6,0.2-40c13.6,0,27.2,0,40.7,0c-0.1,13.3-0.1,26.6-0.2,39.9
		c-13.6,0.1-27.2,0.1-40.8,0.2L164.8,39.1z"/>
	<path class="st0" d="M205.5,39c0.1-13.3,0.1-26.6,0.2-39.9c13.6,0,27.2,0,40.7,0c0.2,13.3,0.3,26.6,0.5,39.9
		c-0.3-0.2-0.5-0.2-0.8,0.1c-13.4,0-26.9,0.1-40.3,0.1L205.5,39z"/>
	<path class="st5" d="M288.5,39.1c0-13.3,0-26.6,0-39.9c13.6,0,27.2,0,40.7,0c0,13.2,0,26.5,0,39.7c0,0-0.1,0.3-0.1,0.3
		C315.5,39.1,301.9,39.1,288.5,39.1C288.4,39.1,288.5,39.1,288.5,39.1z"/>
	<path class="st6" d="M329.2,38.9c0-13.2,0-26.5,0-39.7c12.5,0,25.1,0.1,37.6-0.1c2.7,0,3.2,0.5,3.2,3.2
		c-0.2,12.3-0.1,24.5-0.1,36.8C356.3,39,342.8,38.9,329.2,38.9z"/>
	<path class="st1" d="M123-0.8c0.2,12.5,0.3,25,0.5,37.4c-0.2,0.8-0.4,1.5-0.6,2.3c0,0,0.3,0.3,0.3,0.3c-13.7,0-27.3,0-41,0l0.2-0.4
		c-0.1-13.2-0.1-26.4-0.2-39.6C95.9-0.8,109.4-0.8,123-0.8z"/>
	<path class="st7" d="M329.2,38.9c13.6,0.1,27.1,0.1,40.7,0.2c0,13.3,0,26.6,0,39.9c-13.6,0-27.2-0.1-40.9-0.1c0-13.2,0-26.5,0-39.7
		L329.2,38.9z"/>
	<path class="st8" d="M369.9,117.7c0,13.3,0,26.6,0,39.9c-13.6,0-27.2,0-40.8,0c0-13.4,0.1-26.7,0.1-40.1
		C342.8,117.6,356.4,117.6,369.9,117.7z"/>
	<path class="st5" d="M329.1,157.6c13.6,0,27.2,0,40.8,0c0,13.3,0,26.6,0,39.9c-13.5,0-27.1-0.1-40.6-0.1c0,0-0.2-0.2-0.2-0.2
		c0-13.2,0-26.5,0.1-39.7C329.1,157.5,329.1,157.6,329.1,157.6z"/>
	<path class="st9" d="M82.3-0.8c0.1,13.2,0.1,26.4,0.2,39.6c-13.7,0.1-27.3,0.2-41,0.3c0,0-0.3,0.3-0.3,0.3
		c0.1-13.4,0.3-26.8,0.4-40.2C55.1-0.8,68.7-0.8,82.3-0.8z"/>
	<path class="st6" d="M165,236.2c-14,0-28,0-42,0c0.6-12.9,0.5-25.8,0-38.7c13.9-0.1,27.8-0.2,41.6-0.3
		C164.8,210.2,164.9,223.2,165,236.2z"/>
	<path class="st1" d="M-0.4,197.5c13.9-0.1,27.7-0.3,41.6-0.4c0.1,13,0.3,26.1,0.4,39.1c-13,0-25.9-0.1-38.9,0.1
		c-2.7,0-3.2-0.5-3.2-3.2C-0.3,221.2-0.4,209.3-0.4,197.5z"/>
	<path class="st10" d="M-0.4,79c13.8,0,27.6,0,41.4,0c0,0,0.5,0,0.5,0c-0.6,12.9-0.7,25.8,0,38.7l-0.1,0.1
		c-13.9,0-27.9-0.1-41.8-0.1C-0.4,104.8-0.4,91.9-0.4,79z"/>
	<path class="st8" d="M288.4,236.2c-14,0-28,0-42,0c0.1-12.9,0.2-25.9,0.4-38.8c13.7-0.1,27.4-0.2,41.1-0.3l0.3,0.4
		C288.3,210.3,288.4,223.3,288.4,236.2z"/>
	<path class="st11" d="M369.9,117.7c-13.5-0.1-27.1-0.1-40.6-0.2l-0.1,0.2c0-12.9,0-25.9,0-38.8l-0.1,0c13.6,0,27.2,0.1,40.9,0.1
		C369.9,91.9,369.9,104.8,369.9,117.7z"/>
	<path class="st12" d="M41.6,236.2c-0.1-13-0.3-26.1-0.4-39.1c0,0-0.1-0.1-0.1-0.1c13.7,0.2,27.4,0.3,41.1,0.5
		c0,12.9,0.1,25.8,0.1,38.7C68.7,236.2,55.1,236.2,41.6,236.2z"/>
	<path class="st0" d="M82.3,236.2c0-12.9-0.1-25.8-0.1-38.7c0,0,0.3-0.3,0.3-0.3c13.6,0.1,27.1,0.1,40.7,0.2l0,0
		c0.5,12.9,0.6,25.8,0,38.7C109.4,236.2,95.9,236.2,82.3,236.2z"/>
	<path class="st4" d="M165,236.2c-0.1-13-0.2-26-0.3-39l0-0.1c13.7,0.1,27.3,0.2,41,0.3c0,12.9,0,25.8,0.1,38.8
		C192.1,236.2,178.6,236.2,165,236.2z"/>
	<path class="st1" d="M205.7,236.2c0-12.9,0-25.8-0.1-38.8c0,0,0.1,0.1,0.1,0.1c13.6,0,27.2-0.1,40.8-0.1l0.2,0
		c-0.1,12.9-0.2,25.9-0.4,38.8C232.9,236.2,219.3,236.2,205.7,236.2z"/>
	<path class="st10" d="M288.4,236.2c0-12.9-0.1-25.8-0.1-38.7c13.6-0.1,27.2-0.2,40.8-0.2c0,0,0.2,0.2,0.2,0.2
		c0,12.9-0.1,25.8-0.1,38.8C315.6,236.2,302,236.2,288.4,236.2z"/>
	<path class="st13" d="M329.2,236.2c0-12.9,0.1-25.8,0.1-38.8c13.5,0,27.1,0.1,40.6,0.1c0,11.8-0.1,23.7,0.1,35.5
		c0,2.7-0.5,3.2-3.2,3.2C354.3,236.1,341.7,236.2,329.2,236.2z"/>
	<path class="st6" d="M82.2,197.5c-13.7-0.2-27.4-0.3-41.1-0.5c0.1-13.1,0.2-26.3,0.3-39.4c13.6,0,27.2,0,40.8,0
		c0.1,13.2,0.2,26.5,0.3,39.7L82.2,197.5z"/>
	<path class="st10" d="M82.2,157.5c-13.6,0-27.2,0-40.8,0c0-13.3,0-26.5,0-39.8c0,0,0.1-0.1,0.1-0.1c13.6,0,27.2,0,40.8,0
		c0,0-0.1,0.3-0.1,0.3C82.2,131.2,82.2,144.4,82.2,157.5L82.2,157.5z"/>
	<path class="st11" d="M246.9,39c13.8,0,27.7,0,41.5,0c0,0-0.1,0-0.1,0c-0.1,13.2-0.1,26.4-0.2,39.6c0,0,0.2,0.3,0.2,0.3
		c-14,0.1-28,0.1-41.9,0.2c0.1-13.3,0.6-26.6-0.3-40C246.4,38.8,246.7,38.8,246.9,39z"/>
	<path class="st12" d="M41.4,39.1c13.7-0.1,27.3-0.2,41-0.3c0,0-0.2,0.4-0.2,0.4c-0.1,13.2-0.2,26.3-0.3,39.5
		c-13.5,0.1-27,0.2-40.4,0.4c0,0-0.5,0-0.5,0C41.1,65.7,41.3,52.4,41.4,39.1z"/>
	<path class="st10" d="M124.1,38.9c13.6,0.1,27.1,0.2,40.7,0.2c0,0,0,0.1,0,0.1c0,13,0,25.9,0,38.9c-13,0.1-25.9,0.2-38.9,0.4
		c-0.7-0.5-1.3-0.6-1.8,0.2l-0.4-0.1c-0.1-13.1-0.3-26.3-0.4-39.4c0,0-0.3-0.3-0.3-0.3C123.3,38.9,123.7,38.9,124.1,38.9z"/>
	<path class="st7" d="M124.1,38.9c-0.4,0-0.8,0-1.2,0c0.2-0.8,0.4-1.5,0.6-2.3C123.7,37.4,123.9,38.1,124.1,38.9z"/>
	<path class="st13" d="M164.7,78.2c0-13,0-25.9,0-38.9c13.6-0.1,27.2-0.1,40.8-0.2c0,0,0.3,0.2,0.3,0.2c0,13.2-0.1,26.5-0.1,39.7
		c-13.6,0-27.1,0-40.7,0C165,78.6,164.9,78.4,164.7,78.2z"/>
	<path class="st14" d="M205.7,78.9c0-13.2,0.1-26.5,0.1-39.7c13.4,0,26.9-0.1,40.3-0.1c0.9,13.3,0.4,26.6,0.3,40c0,0,0-0.1,0-0.1
		c-13.5-0.1-27.1-0.1-40.6-0.2C205.8,78.8,205.7,78.9,205.7,78.9z"/>
	<path class="st1" d="M288.2,78.6c0.1-13.2,0.1-26.4,0.2-39.6c13.6,0,27.1,0.1,40.7,0.1c0,13.2,0,26.5-0.1,39.7c0,0,0.1,0,0.1,0
		C315.5,78.8,301.8,78.7,288.2,78.6z"/>
	<path class="st14" d="M123.2,39.2c0.1,13.1,0.3,26.3,0.4,39.4c-0.1,12.5-0.3,25.1-0.4,37.6c-0.1,0.5-0.3,1-0.4,1.5
		c-13.5,0.1-27.1,0.3-40.6,0.4c0,0,0.1-0.3,0.1-0.3c-0.1-13-0.3-26-0.4-39.1c0.1-13.2,0.2-26.3,0.3-39.5
		C95.9,39.2,109.5,39.2,123.2,39.2z"/>
	<path class="st13" d="M329.3,117.5c0,13.4-0.1,26.7-0.1,40.1c0,0,0-0.1,0-0.1c-13.6,0.1-27.1,0.2-40.7,0.4
		c-0.2-0.1-0.3-0.3-0.2-0.6c-0.1-13-0.2-26-0.2-39c0.2-0.1,0.4-0.3,0.6-0.5c13.5,0,27.1,0,40.6-0.1L329.3,117.5z"/>
	<path class="st14" d="M288.5,157.9c13.6-0.1,27.1-0.2,40.7-0.4c0,13.2,0,26.5-0.1,39.7c-13.6,0.1-27.2,0.2-40.8,0.2
		c0,0-0.3-0.4-0.3-0.4C288.1,184,288.3,170.9,288.5,157.9z"/>
	<path class="st14" d="M164.7,197.2c-13.9,0.1-27.8,0.2-41.6,0.3c0,0,0,0,0,0c0.1-13.2,0.3-26.5,0.4-39.7
		c13.7-0.1,27.5-0.1,41.2-0.2C164.7,170.8,164.7,183.9,164.7,197.2L164.7,197.2z"/>
	<path class="st8" d="M81.9,78.7c0.1,13,0.3,26,0.4,39.1c-13.6,0-27.2,0-40.8,0c-0.7-12.9-0.6-25.8,0-38.7
		C54.9,78.9,68.4,78.8,81.9,78.7z"/>
	<path class="st2" d="M288.5,157.9c-0.2,13.1-0.3,26.1-0.5,39.2c-13.7,0.1-27.4,0.2-41.2,0.3c0,0-0.2,0-0.2,0
		c0-13.3-0.1-26.6-0.1-39.9c13.9-0.1,27.8-0.1,41.7-0.2C288.2,157.5,288.3,157.7,288.5,157.9z"/>
	<path class="st3" d="M329.2,117.7c-13.5,0-27.1,0-40.6,0.1c-0.1-13-0.1-25.9-0.2-38.9c0,0-0.2-0.3-0.2-0.3
		c13.7,0.1,27.3,0.2,41,0.3C329.2,91.8,329.2,104.8,329.2,117.7z"/>
	<path class="st4" d="M123.5,157.8c-0.1,13.2-0.3,26.5-0.4,39.7c-13.6-0.1-27.1-0.1-40.7-0.2c-0.1-13.2-0.2-26.5-0.3-39.7
		c0,0,0,0,0,0C95.9,157.6,109.7,157.7,123.5,157.8z"/>
	<path class="st3" d="M164.7,197.1c0-13.2,0-26.3,0-39.5c0,0,0-0.4,0-0.4c13.7,0.1,27.4,0.3,41.1,0.4c0,13.3,0,26.6,0,39.9
		c0,0-0.1-0.1-0.1-0.1C192,197.3,178.3,197.2,164.7,197.1z"/>
	<path class="st7" d="M205.8,197.5c0-13.3,0-26.6,0-39.9c0,0,0,0,0,0c13.6,0,27.2,0,40.8,0c0,0-0.1-0.1-0.1-0.1
		c0,13.3,0.1,26.6,0.1,39.9C233,197.4,219.4,197.4,205.8,197.5z"/>
	<path class="st1" d="M123.5,157.8c-13.8-0.1-27.5-0.2-41.3-0.3c0-13.2,0-26.3,0-39.5c13.5-0.1,27.1-0.3,40.6-0.4
		c0,0,0.5,0.1,0.5,0.1l0.5-0.1c13.4,0.2,26.7,0.3,40.1,0.5c1.3,2.1,0.9,4.4,0.9,6.7c0,10.8,0,21.6,0,32.4c0,0,0,0.4,0,0.4
		C151,157.7,137.2,157.7,123.5,157.8z"/>
	<path class="st7" d="M288.4,78.9c0.1,13,0.1,25.9,0.2,38.9c-0.1,0.2-0.3,0.4-0.6,0.5c-13.7-0.1-27.5-0.2-41.2-0.3
		c-0.1-13-0.2-26-0.3-39c0,0,0,0.1,0,0.1C260.4,79,274.4,79,288.4,78.9z"/>
	<path class="st5" d="M163.8,118.1c-13.4-0.2-26.7-0.3-40.1-0.5c-0.2-0.5-0.3-1-0.5-1.5c0.1-12.5,0.3-25.1,0.4-37.6
		c0,0,0.4,0.1,0.4,0.1c0.6-0.1,1.2-0.1,1.8-0.2c13-0.1,25.9-0.2,38.9-0.4c0.1,0.2,0.2,0.5,0.3,0.7c-0.1,12.9-0.2,25.8-0.3,38.7
		C164.4,117.8,164.1,117.9,163.8,118.1z"/>
	<path class="st11" d="M125.9,78.5c-0.6,0.1-1.2,0.1-1.8,0.2C124.6,77.9,125.2,78,125.9,78.5z"/>
	<path class="st9" d="M164.8,117.6c0.1-12.9,0.2-25.8,0.3-38.7c13.6,0,27.1,0,40.7,0c0,0,0.1-0.1,0.1-0.1c-0.1,13-0.1,25.9-0.2,38.8
		C192,117.6,178.4,117.6,164.8,117.6z"/>
	<path class="st10" d="M205.6,117.6c0.1-12.9,0.1-25.9,0.2-38.8c13.5,0,27.1,0.1,40.6,0.2c0.1,13,0.2,26,0.3,39c0,0-0.2-0.3-0.2-0.3
		c-13.5,0.1-27,0.3-40.4,0.4C206,117.9,205.8,117.7,205.6,117.6z"/>
	<path class="st15" d="M123.2,116.2c0.2,0.5,0.3,1,0.5,1.5c0,0-0.5,0.1-0.5,0.1s-0.5-0.1-0.5-0.1C123,117.1,123.1,116.7,123.2,116.2
		z"/>
	<path class="st1" d="M246.7,118c13.7,0.1,27.5,0.2,41.2,0.3c0.1,13,0.2,26,0.2,39c-13.9,0.1-27.8,0.1-41.7,0.2c0,0,0.1,0.1,0.1,0.1
		c0-13.3,0-26.6-0.1-39.9L246.7,118z"/>
	<path class="st12" d="M164.8,117.6c13.6,0,27.2,0,40.8,0c0.2,0.1,0.4,0.2,0.4,0.5c-0.1,13.2-0.2,26.3-0.3,39.5c0,0,0,0,0,0
		c-13.7-0.1-27.4-0.3-41.1-0.4c0-10.8,0-21.6,0-32.4c0-2.3,0.4-4.6-0.9-6.7C164.1,117.9,164.4,117.8,164.8,117.6z"/>
	<path class="st2" d="M205.7,157.6c0.1-13.2,0.2-26.3,0.3-39.5c13.5-0.1,27-0.3,40.4-0.4c0,13.3,0,26.6,0.1,39.9
		C233,157.6,219.4,157.6,205.7,157.6z"/>
</g>
</svg>
