<?xml version="1.0" encoding="utf-8"?>
<!-- Generator: Adobe Illustrator 24.0.1, SVG Export Plug-In . SVG Version: 6.00 Build 0)  -->
<svg version="1.1" id="Layer_1" xmlns="http://www.w3.org/2000/svg" xmlns:xlink="http://www.w3.org/1999/xlink" x="0px" y="0px"
	 viewBox="0 0 900 900" style="enable-background:new 0 0 900 900;" xml:space="preserve">
<style type="text/css">
	.st0{fill:none;stroke:#000000;stroke-width:15;stroke-linecap:round;stroke-linejoin:round;stroke-miterlimit:10;}
	.st1{fill:none;stroke:#000000;stroke-width:15;stroke-miterlimit:10;}
	.st2{fill:#FFFFFF;stroke:#000000;stroke-width:15;stroke-miterlimit:10;}
</style>
<g>
	<path class="st0" d="M710.2,368.9c0-124.3-100.7-225-225-225v556h107v-133C662.4,528.8,710.2,454.4,710.2,368.9z"/>
	<path class="st1" d="M486.2,424.9c39.6,1.3,86.2,1,111.5-6.5c59-17.5,78-78,45-124c-16.8-23.4-120-81-120,100
		c0,129.1,3.5,306.5,3.5,306.5"/>
	<path class="st1" d="M449.6,817.9h71c24.6,0,44.5-19.9,44.5-44.5v-42.5h-160v42.5C405.2,797.9,425.1,817.9,449.6,817.9z"/>
	<line class="st2" x1="405.2" y1="756.1" x2="565.2" y2="756.1"/>
	<line class="st2" x1="405.2" y1="786.1" x2="565.2" y2="786.1"/>
	<path class="st1" d="M450.2,820.4c0,19.9,16.1,36,36,36h0c19.9,0,36-16.1,36-36H450.2z"/>
	<g>
		<path d="M429.4,143.6h49.5l-0.6,446H295.7L232.5,705H109.8L429.4,143.6z M347.9,492.9H478l0.3-114.2L467.1,272L347.9,492.9z"/>
	</g>
</g>
</svg>
